Coordinates
version=1
nRows=12
nColumns=24
inDegrees=yes

Units are S.I. units (second, meters, Newtons, ...)
Angles are in degrees.

endheader
time	pelvis_tilt	pelvis_list	pelvis_rotation	pelvis_tx	pelvis_ty	pelvis_tz	hip_flexion_r	hip_adduction_r	hip_rotation_r	knee_angle_r	ankle_angle_r	subtalar_angle_r	mtp_angle_r	hip_flexion_l	hip_adduction_l	hip_rotation_l	knee_angle_l	ankle_angle_l	subtalar_angle_l	mtp_angle_l	lumbar_extension	lumbar_bending	lumbar_rotation
      7.25000000	     39.43322595	      2.56968121	      3.77472097	      2.10301569	      0.67592971	     -0.21134912	    -34.98974118	      3.14093012	     -5.20574639	    -14.11850860	     20.98161527	      6.07914413	      0.00000000	    -16.62500279	     -2.08479380	     -5.40505454	    -67.88137893	      8.34503273	     -2.49412060	      0.00000000	    -64.20464054	      1.72477484	     -2.84750243
      7.25500000	     39.36709127	      2.63361633	      3.56680558	      2.10756956	      0.67610093	     -0.21122710	    -35.54311553	      3.00306271	     -5.11134793	    -13.76300595	     21.19944250	      6.15289755	      0.00000000	    -15.98484073	     -1.78936654	     -5.54224869	    -67.03043944	      8.89955115	     -1.84315479	      0.00000000	    -64.22518605	      1.55732031	     -2.71102522
      7.26000000	     39.31551842	      2.68363485	      3.35536508	      2.11209282	      0.67622120	     -0.21108859	    -36.10090671	      2.87557824	     -5.01000323	    -13.41862818	     21.43068893	      6.23796807	      0.00000000	    -15.38506232	     -1.52250434	     -5.69414193	    -66.08972293	      9.41483701	     -1.22083174	      0.00000000	    -64.26636315	      1.39483688	     -2.57047460
      7.26500000	     39.34280000	      2.69362729	      3.07401411	      2.11662957	      0.67632973	     -0.21090207	    -36.74446098	      2.74250345	     -4.87062318	    -13.06475807	     21.68818319	      6.35380975	      0.00000000	    -14.93010155	     -1.29487179	     -5.93511288	    -65.02942392	      9.91503686	     -0.68071512	      0.00000000	    -64.38639533	      1.19999151	     -2.38216580
      7.27000000	     39.23645455	      2.75895782	      2.93182870	      2.12114239	      0.67632225	     -0.21085187	    -37.22082429	      2.63081841	     -4.83732452	    -12.76795488	     21.87836425	      6.38185830	      0.00000000	    -14.30565338	     -1.02638322	     -6.00041513	    -63.92783188	     10.31502640	     -0.22441815	      0.00000000	    -64.38638231	      1.07941574	     -2.23781183
      7.27500000	     39.18373026	      2.77601758	      2.73771719	      2.12565882	      0.67627085	     -0.21071599	    -37.75903488	      2.53449238	     -4.74848363	    -12.45073755	     22.13854101	      6.51510697	      0.00000000	    -13.78162934	     -0.82177086	     -6.13317783	    -62.74035393	     10.69972553	      0.26474002	      0.00000000	    -64.44565315	      0.93269471	     -2.10669633
      7.28000000	     39.07924885	      2.78088715	      2.62113004	      2.13014244	      0.67612653	     -0.21069986	    -38.22430171	      2.48692543	     -4.75966264	    -12.15999466	     22.33439422	      6.53846096	      0.00000000	    -13.20772758	     -0.63719560	     -6.20205648	    -61.48999146	     11.06508183	      0.52099120	      0.00000000	    -64.46691319	      0.87023303	     -1.93454569
      7.28500000	     39.07553204	      2.78541970	      2.38496371	      2.13470772	      0.67602619	     -0.21053343	    -38.80329279	      2.36853086	     -4.67051967	    -11.87784576	     22.64058957	      6.75657660	      0.00000000	    -12.83477760	     -0.46138789	     -6.39107274	    -60.08345070	     11.32811974	      0.96007154	      0.00000000	    -64.55180578	      0.70401299	     -1.80140505
      7.29000000	     39.15966652	      2.76865466	      2.12802438	      2.13924684	      0.67592504	     -0.21044792	    -39.48014573	      2.24840541	     -4.59157780	    -11.58297429	     22.87286190	      6.91048555	      0.00000000	    -12.61178241	     -0.28369710	     -6.60290375	    -58.55733324	     11.58606213	      1.09718887	      0.00000000	    -64.73877941	      0.55827367	     -1.56559877
      7.29500000	     39.03950495	      2.74447172	      2.04259687	      2.14378584	      0.67562014	     -0.21038004	    -39.91684708	      2.24702396	     -4.62375925	    -11.32431263	     23.12311699	      6.98536151	      0.00000000	    -12.11924445	     -0.18341631	     -6.67076458	    -57.06235100	     11.78022165	      1.33221660	      0.00000000	    -64.72710832	      0.51525098	     -1.45337842
      7.30000000	     38.96497297	      2.71227844	      1.91617007	      2.14834343	      0.67530655	     -0.21031835	    -40.40382001	      2.21787938	     -4.65849137	    -11.06657749	     23.38908068	      7.15313938	      0.00000000	    -11.73787904	     -0.08213359	     -6.78324168	    -55.44808305	     11.94612050	      1.49646345	      0.00000000	    -64.75952855	      0.45225812	     -1.30102544
      7.30500000	     38.81823380	      2.60266439	      1.93965022	      2.15280984	      0.67483711	     -0.21042379	    -40.79282050	      2.35169272	     -4.68760992	    -10.82520870	     23.58566239	      7.14706508	      0.00000000	    -11.24065060	     -0.08726384	     -6.76679810	    -53.85565280	     12.12200715	      1.52413829	      0.00000000	    -64.74380691	      0.57920321	     -1.16447913
